# xmcd
#
# Track frame offsets:
#	150
#	16233
#	33460
#	47287
#	61234
#	77008
#	91880
#	104954
#	120366
#	137766
#	150645
#	167873
#	182889
#	199430
#
# Disc length: 2833 seconds
#
# Revision: 0
# Processed by: cddbd v1.5.1PL2 Copyright (c) Steve Scherf et al.
# Submitted via: dBpowerAMP V4.0
#
DISCID=b70b0f0e
DTITLE=Various Artist - All Aboard 3
DYEAR=1900
DGENRE=R and B
TTITLE0=O C Smith - Save The Last Dance For Me
TTITLE1=Mojo Blues Band - Mosy On Down
TTITLE2=Billy Scott - Where or When
TTITLE3=Band of Oz - Every Little Thing She Does
TTITLE4=Freda Payne - Only One Minute
TTITLE5=Lonnie Carpenter - Let Me Go My Merry Way
TTITLE6=Ann Roberson - School Days
TTITLE7=Tokens - Rock and Roll Lullaby
TTITLE8=Heart and Soul - Boogie WOogie Rhythm and Blues
TTITLE9=George Hawkins, Jr. - Lonely Island
TTITLE10=Roach Carruthers - Black Cat Blues
TTITLE11=Don Wise - Hot Cha
TTITLE12=O C Smith - This Is Gonna Last Forever
TTITLE13=Sea Cruz - You Bring Out The Boogie In Me
EXTD=
EXTT0=
EXTT1=
EXTT2=
EXTT3=
EXTT4=
EXTT5=
EXTT6=
EXTT7=
EXTT8=
EXTT9=
EXTT10=
EXTT11=
EXTT12=
EXTT13=
PLAYORDER=
